<svg width="19" height="20" viewBox="0 0 19 20" fill="none" xmlns="http://www.w3.org/2000/svg">
<path fill-rule="evenodd" clip-rule="evenodd" d="M15.0431 9.26064V6.78245C15.0431 3.58889 12.4542 1 9.26064 1C6.06708 1 3.47819 3.58889 3.47819 6.78245V9.26064C3.47819 11.9867 1 12.6475 1 14.217C1 15.6213 4.22165 16.6952 9.26064 16.6952C14.2996 16.6952 17.5213 15.6213 17.5213 14.217C17.5213 12.6475 15.0431 11.9867 15.0431 9.26064Z" stroke="#848DA4" stroke-width="2" stroke-linecap="round" stroke-linejoin="round"/>
<path d="M9.26076 18.3473C8.42561 18.3473 7.64085 18.3192 6.90234 18.2646C7.22547 19.2954 8.18054 19.9969 9.26076 19.9969C10.341 19.9969 11.296 19.2954 11.6192 18.2646C10.8807 18.3192 10.0959 18.3473 9.26076 18.3473Z" fill="#848DA4"/>
</svg>
