<svg width="19" height="20" fill="none" xmlns="http://www.w3.org/2000/svg"><path clip-rule="evenodd" d="M15.043 9.26V6.783a5.782 5.782 0 0 0-11.565 0v2.479C3.478 11.987 1 12.648 1 14.217c0 1.404 3.222 2.478 8.26 2.478 5.04 0 8.261-1.074 8.261-2.478 0-1.57-2.478-2.23-2.478-4.956z" stroke="#848DA4" stroke-width="2" stroke-linecap="round" stroke-linejoin="round"/><path d="M9.26 18.347c-.834 0-1.62-.028-2.358-.082a2.472 2.472 0 0 0 4.717 0c-.738.054-1.523.082-2.358.082z" fill="#848DA4"/></svg>linejoin="round"/>
<path d="M9.26076 18.3473C8.42561 18.3473 7.64085 18.3192 6.90234 18.2646C7.22547 19.2954 8.18054 19.9969 9.26076 19.9969C10.341 19.9969 11.296 19.2954 11.6192 18.2646C10.8807 18.3192 10.0959 18.3473 9.26076 18.3473Z" fill="#848DA4"/>
</svg>
