<svg width="42" height="42" fill="none" xmlns="http://www.w3.org/2000/svg"><path clip-rule="evenodd" d="M5.25 21.438c0 8.939 7.247 16.187 16.188 16.187 8.939 0 16.187-7.248 16.187-16.188 0-8.939-7.248-16.187-16.188-16.187-8.94 0-16.187 7.248-16.187 16.188z" stroke="#F58020" stroke-width="1.5" stroke-linecap="round" stroke-linejoin="round"/><path d="M15.75 21.23a.778.778 0 0 0 .252.578l3.623 3.506a.892.892 0 0 0 1.113-.094l7.35-7.14a.787.787 0 0 0-.105-1.05.892.892 0 0 0-1.208.01l-6.646 6.416-3.014-2.909a.904.904 0 0 0-.493-.146.883.883 0 0 0-.62.252.757.757 0 0 0-.252.577z" fill="#F58020"/></svg>