<svg width="14" height="14" viewBox="0 0 14 14" fill="none" xmlns="http://www.w3.org/2000/svg">
<path fill-rule="evenodd" clip-rule="evenodd" d="M7.6663 1.76303C8.63015 2.04991 9.33296 2.94281 9.33291 3.99984C9.33286 5.05911 8.62696 5.95349 7.65993 6.2383C7.66433 6.26925 7.66661 6.30088 7.66661 6.33304L7.66629 12.9997C7.66628 13.3679 7.36778 13.6664 6.99959 13.6663C6.63141 13.6663 6.33294 13.3678 6.33296 12.9996L6.33328 6.33298C6.33328 6.30091 6.33555 6.26937 6.33993 6.23851C5.37245 5.9539 4.66619 5.05922 4.66624 3.99961C4.6663 2.94262 5.36915 2.04982 6.33297 1.763L6.33301 0.999642C6.33303 0.631452 6.63152 0.33299 6.99971 0.333008C7.3679 0.333026 7.66636 0.631517 7.66634 0.999707L7.6663 1.76303ZM5.99958 3.99968C5.9996 3.44739 6.44734 2.9997 6.99963 2.99972C7.55191 2.99975 7.9996 3.44749 7.99958 3.99977C7.99955 4.55206 7.55182 4.99975 6.99953 4.99972C6.44725 4.9997 5.99955 4.55196 5.99958 3.99968ZM8.99967 9.99984C8.99962 11.0569 9.70244 11.9498 10.6663 12.2366L10.6662 13C10.6662 13.3682 10.9647 13.6667 11.3329 13.6667C11.7011 13.6667 11.9996 13.3682 11.9996 13L11.9996 12.2367C12.9634 11.9499 13.6663 11.0571 13.6663 10.0001C13.6664 8.94046 12.9601 8.04578 11.9927 7.76117C11.997 7.73031 11.9993 7.69877 11.9993 7.6667L11.9996 1.00003C11.9996 0.631843 11.7012 0.333352 11.333 0.333334C10.9648 0.333317 10.6663 0.631779 10.6663 0.999969L10.666 7.66664C10.666 7.6988 10.6683 7.73043 10.6727 7.76138C9.70562 8.04619 8.99973 8.94057 8.99967 9.99984ZM12.333 10C12.333 10.5523 11.8852 11 11.333 11C10.7807 10.9999 10.333 10.5522 10.333 9.9999C10.333 9.44762 10.7808 8.99993 11.3331 8.99995C11.8853 8.99998 12.333 9.44772 12.333 10ZM1.99975 12.2365C1.03584 11.9496 0.332957 11.0567 0.333008 9.99961C0.333059 8.94029 1.03901 8.04587 2.0061 7.76107C2.00171 7.73017 1.99944 7.69859 1.99944 7.66647L1.99976 0.999806C1.99977 0.631616 2.29827 0.333154 2.66646 0.333171C3.03465 0.333189 3.33311 0.63168 3.33309 0.99987L3.33277 7.66654C3.33277 7.69857 3.33051 7.73007 3.32614 7.7609C4.29361 8.04553 4.99986 8.94022 4.9998 9.99984C4.99975 11.0568 4.2969 11.9497 3.33308 12.2365L3.33304 12.9999C3.33302 13.3681 3.03453 13.6665 2.66634 13.6665C2.29815 13.6665 1.99969 13.368 1.99971 12.9998L1.99975 12.2365ZM2.66636 10.9998C3.21868 10.9998 3.66645 10.5521 3.66647 9.99977C3.6665 9.44745 3.21878 8.99969 2.66645 8.99966C2.11413 8.99963 1.66637 9.44736 1.66634 9.99968C1.66631 10.552 2.11404 10.9998 2.66636 10.9998Z" fill="#1D92FF"/>
</svg>
