<svg xmlns="http://www.w3.org/2000/svg" viewBox="0 0 765.98 101.18"><path d="M201.35 16.95c1.62-9.47 10.71-16.25 20-16.89 5.03-.48 9.7 2.28 14.76 1.65.44 3.61.88 7.21 1.29 10.82-.72.09-2.14.28-2.86.37-1.39-2.72-2.82-5.77-5.76-7.12-5.63-2.55-13.22-1.58-17.19 3.46-4.48 5.56-5.26 14.42-.58 20.11 4.06 4.7 9.36 8.1 14.1 12.07-.11-2.22.05-4.49-.46-6.67-.97-.92-2.13-1.61-3.26-2.3-.02-.71-.08-2.12-.1-2.82 9.72.37 20.21-1.52 29.18 3.26 11.44 6.05 15.82 21.14 11.65 32.98-1.61 4.72-4.88 8.62-8.46 11.99 2.87 2.27 6.39 5.29 10.31 3.58 2.92-1.02 2.19-4.54 2.41-6.93 1.74.03 3.42.41 3.33 2.54 1.07 4.48-2.68 9.17-7.28 9.16-5.21.78-9.74-2.33-13.57-5.43-12.66 6.51-28.08 7.3-41.35 2.19-6.45-2.61-12.71-6.57-16.44-12.6-4.95-7.44-4.41-17.82.54-25.11 3.69-5.7 10.28-8.78 16.87-9.53-5.25-4.61-8.79-11.71-7.13-18.78zm29.64 16.57c-.84 4.38-.29 8.89-.39 13.33 7.53 7.95 13.13 17.43 19.51 26.28 3.43-4.36 6.16-9.47 6.46-15.11.34-6.58-.81-13.77-5.29-18.87-4.88-5.7-13.27-7.04-20.29-5.63zm-28.45 8.65c-6.27 4.66-8.62 13.57-6.5 20.94 2.04 7.16 7.88 12.85 14.69 15.6 10.99 4.66 24.2 4.16 34.66-1.7-8.95-10.13-15.57-22.21-25.45-31.51-4.4-4.38-11.81-7.06-17.4-3.33zM14.17 11.75c10.06-8 24.13-9.41 36.2-5.81 3.98 1.36 8.2.89 12.23.02.87 7.01 1.77 14.01 2.61 21.02-1.18.22-2.35.43-3.53.64-1.83-6-5.06-12.04-10.75-15.16-7.85-4.75-18.1-5.24-26.38-1.31-5.93 2.75-10.4 8.04-13.05 13.93-4.7 11.26-4.6 24.72 1.1 35.61 5.97 11.12 19.63 16.77 31.84 14.36 8.94-1.47 16.47-7.44 21.49-14.77.64.39 1.93 1.19 2.58 1.59-3.8 7.66-10.13 14.22-18.23 17.25-16.23 6.8-37.16.2-45.51-15.57-8.6-16.63-5.64-39.79 9.4-51.8zM148.6 8.2c4.98-1.16 9.94-2.4 14.91-3.61 0 22.14.01 44.28-.01 66.42.16 1.73-.19 4.14 1.71 5.05 2.31.81 4.83.51 7.23.79-.27.6-.8 1.8-1.07 2.4-4.53 1.13-9.27 1.2-13.89 1.9 0-2.75.01-5.5.03-8.25-4.86 5.24-11.86 8.86-19.15 8.1-7.59-.56-14.28-6.03-16.9-13.09-2.4-6.68-2.55-14.08-.86-20.94 2.12-8.81 9.58-16.46 18.75-17.63 6.43-1.14 12.95 1.27 17.79 5.47-.19-6.3.08-12.6-.1-18.89-.05-1.65-.39-3.77-2.22-4.34-2.04-.57-4.18-.53-6.27-.73.02-.66.04-1.99.05-2.65zm-11.65 26.31c-5.74 2.6-8.88 8.68-10.07 14.6-1.31 6.84-.73 14.37 2.98 20.41 2.93 4.88 8.93 7.52 14.52 6.56 5.03-.59 9.23-3.75 12.71-7.22-.04-8.65 0-17.29.01-25.94-.13-1.24.18-2.74-.77-3.73-4.61-5.4-12.82-7.82-19.38-4.68zm140.7-9.8c.77-6.62 1.6-13.23 2.39-19.84 3.09.56 6.21 1.06 9.37 1.04 15.66.01 31.32-.03 46.98.01 3.49.05 6.95-.39 10.37-1.07.81 6.64 1.67 13.28 2.39 19.94-.89.1-2.66.31-3.55.41-1.29-4.82-2.83-10.35-7.51-12.97-6.36-3.53-13.94-2.05-20.89-2.35-.01 20.05.02 40.09-.02 60.14.09 2.08-.13 5.02 2.25 5.97 2.98.97 6.2.47 9.28.6 0 .83-.01 2.47-.02 3.29-10.17-.01-20.34-.01-30.52-.01-.01-.82-.04-2.46-.05-3.28 3.94-.26 11.5 1.51 11.43-4.61.22-20.69.02-41.4.09-62.1-6.98.3-14.61-1.2-20.98 2.39-4.71 2.58-6.14 8.2-7.45 12.99-.89-.14-2.67-.41-3.56-.55zm74.82-16.49c4.95-1.2 9.88-2.43 14.83-3.61.16 11.08.13 22.17 0 33.25 6.29-6.15 15.4-10.56 24.3-8.07 6.27 1.61 9.96 8.09 10.16 14.25.24 9.33-.07 18.67.09 28 .05 1.57.21 3.59 1.89 4.3 2.08.63 4.3.45 6.46.6.01.73.02 2.2.02 2.94-7.77-.01-15.55-.01-23.33 0v-2.93c2.67-.45 7.69.89 8.22-2.96.37-9.35.07-18.73.14-28.09.19-4.57-2.47-9.32-6.97-10.73-7.25-2.37-15.22 1.16-20.25 6.43-1.31 3.22-.53 6.97-.67 10.4.41 7.32-.38 14.66.19 21.97.48 3.87 5.53 2.54 8.21 2.97.01.74.01 2.2.02 2.94-7.78-.01-15.55 0-23.32-.01-.01-.73-.01-2.2-.01-2.94 2.16-.15 4.41.07 6.51-.6 2.01-.92 1.7-3.47 1.82-5.29-.03-18.02-.02-36.04 0-54.06-.11-1.86.07-4.44-1.97-5.33-2.04-.68-4.24-.55-6.34-.74V8.22zm338.43 0c4.97-1.2 9.94-2.43 14.92-3.62.01 22.15.02 44.29-.01 66.43.23 1.69-.4 4.2 1.61 5 2.14.88 4.55.52 6.82.7-.01.68-.05 2.03-.07 2.71-4.81.54-9.6 1.14-14.41 1.65 0-2.77 0-5.53.04-8.29-5.68 6.51-15.07 10.2-23.5 7.3-7.58-2.26-12.6-9.54-13.99-17.06-1.83-9.47-.07-20.2 6.83-27.31 7.69-8.37 22.07-8.86 30.2-.85-.22-6.32.08-12.64-.13-18.96-.03-1.66-.42-3.71-2.17-4.38-2.01-.52-4.11-.48-6.15-.67 0-.66.01-1.99.01-2.65zm-20.33 35.91c-2.49 6.44-2.58 13.71-.81 20.34 1.68 6.14 7.08 11.58 13.7 11.76 6.16.42 11.75-3.01 15.8-7.38.02-9.65-.03-19.3.03-28.96-3.54-3.97-8.49-7.01-13.97-6.76-6.7-.1-12.42 5-14.75 11zM475.66 5.91c11.24.03 22.47-.07 33.7.03 10.92.11 22.21 4.29 29.22 12.95 9.43 11.47 10.55 28.64 3.32 41.52-6.14 11.93-19.39 18.88-32.54 19.37-11.25.23-22.51.04-33.76.08.03-1.06.05-2.13.07-3.19 2.48-.22 5.18.22 7.52-.85 2.04-1.15 1.73-3.82 1.85-5.81-.14-18.96.16-37.94-.14-56.9-.39-4.59-6.05-3.55-9.27-3.76 0-1.15.01-2.29.03-3.44zm18.01 4.5c-1.41.34-.68 2.46-1.02 3.52-.05 18.7.02 37.41-.03 56.11-.05 2.14.07 5.34 2.79 5.74 4.99.58 10.04.3 15.05.17 7.68-.32 15.1-3.98 20.1-9.81 10.63-13.2 10.71-33.98-.4-46.91-5.56-6.53-14.31-9.5-22.72-9.36-4.58.15-9.28-.52-13.77.54zM76.85 32.5c4-2.54 8.93-3.01 13.56-3.35 5.2-.21 10.97.18 15.2 3.57 3.62 2.99 4.84 7.87 4.93 12.38.13 8.63-.02 17.27.02 25.9.04 2.05-.03 4.6 1.95 5.86 3.18 1.07 5.89-1.95 9.11-1.41-2.35 3.7-6.63 6.67-11.18 5.37-3.75-.68-5.74-4.24-6.66-7.61-3.92 4.38-9.46 7.35-15.35 7.82-4.55.37-9.37-1.2-12.47-4.65-4.69-5.68-3.99-15.37 2.26-19.67 7.52-5.46 16.99-6.92 25.92-8.55-.3-4.1-.21-8.64-2.79-12.09-2.23-2.86-6.03-3.44-9.34-4.19-3.44 4.4-9.16 8.53-14.97 6.35-2.51-.93-2.31-4.48-.19-5.73zm5.68 27.6c-4.22 4.12-3.73 12.28 1.86 14.95 6.79 2.91 15.48-.35 19.28-6.53.82-5.68.14-11.49.32-17.22-7.51 1.67-15.77 3.19-21.46 8.8zm336.33-24.68c5.25-5.31 13.24-7.11 20.46-6.01 3.79.7 7.61 2.46 9.86 5.71 3.36 4.62 4.08 10.46 4.52 16-12.14.04-24.29-.06-36.44.05-.43 6.91.47 14.42 5.16 19.86 5.14 6.29 14.94 6.74 21.61 2.73 3.7-2.01 6.19-5.52 8.51-8.91.41.47 1.22 1.43 1.63 1.91-2.08 5.12-5.94 9.67-11.03 11.98-9.01 4.49-21.34 2.57-27.49-5.75-7.86-11.12-6.55-28 3.21-37.57zm9.34-1.53c-5.41 2.47-8.24 8.09-10.16 13.4 7.46-.13 14.96.4 22.4-.25 4.66-.35 5.54-6.29 3.46-9.64-3.04-5.38-10.57-5.94-15.7-3.51zm125.81-1.27c3.28-2.27 7.42-2.84 11.3-3.3 5.75-.5 12.04-.41 17.01 2.92 3.74 2.63 5.17 7.38 5.34 11.76.34 9.7-.11 19.41.18 29.11-.08 2.02 1.39 4.17 3.6 4.03 2.52-.44 4.83-1.76 7.45-1.82-2.19 3.6-6.1 6.56-10.52 5.66-3.99-.49-6.3-4.17-7.33-7.69-4.49 4.85-10.96 8.09-17.66 7.77-5.28-.27-10.71-3.45-12.44-8.64-1.61-5.18-.77-11.65 3.82-15.09 7.53-6.02 17.44-7.45 26.65-9.18-.24-4.16-.17-8.79-2.96-12.2-2.19-2.84-5.96-3.36-9.23-4.04-3.27 4.36-8.73 8.15-14.4 6.53-2.72-.64-3.12-4.41-.81-5.82zm10.74 23.85c-3.45 1.75-6.71 4.58-7.52 8.53-1.05 4.21 1.23 9.17 5.49 10.52 6.66 1.98 14.46-1.07 18.19-6.89.85-5.7.14-11.55.34-17.32-5.64 1.19-11.39 2.4-16.5 5.16zm51.42-18.02c4.61-4.65 10.41-8.48 17.07-9.18 5.78-.89 12.45 1.18 15.45 6.49 3.36 5.47 2.34 12.1 2.48 18.19.14 6.7-.31 13.42.2 20.1.61 3.8 5.51 2.46 8.21 2.88v2.95c-7.78-.01-15.56-.01-23.34 0l.04-2.94c2.71-.39 7.53.82 8.15-2.98.5-8.95.09-17.95.2-26.91.24-4.97-2.2-10.62-7.35-12.01-7.63-2.29-15.4 1.79-20.71 7.1.03 9.63-.02 19.26 0 28.89.12 1.77-.14 4.06 1.59 5.17 2.14.84 4.53.55 6.79.76 0 .73.01 2.19.01 2.92-7.73 0-15.47-.02-23.2.01v-2.93c2.69-.43 7.58.81 8.19-3 .48-10.31.01-20.66.22-30.99-.19-2.32.45-5.33-1.62-6.99-2.09-1.05-4.58-.68-6.83-.95.03-.69.1-2.07.14-2.76 4.5-1.02 8.99-2.1 13.51-3.03.4 3.06.68 6.13.8 9.21z"/><path d="M713.89 30.09c7.31.01 14.62 0 21.93 0 0 .73.01 2.17.01 2.9-2.43.25-5.11-.25-7.28 1.08-.28 1.7.05 3.41.67 4.99 4.04 10.33 7.85 20.75 11.99 31.05 3.53-10.44 7.51-20.71 11.11-31.13.43-1.79 1.87-4.26-.26-5.49-2.33-.53-4.75-.36-7.11-.45 0-.74.01-2.21.01-2.95 7 .01 14 0 21 0 0 .66.01 1.98.02 2.63-2.41.5-5.65.44-6.61 3.25-5.52 12.72-10.15 25.82-15.44 38.64-3.16 8.4-6.62 17.36-13.86 23.11-3.98 3.1-9.49 4.37-14.33 2.77-2.33-.74-3.88-4.06-1.65-5.8 3.85-3.45 9.42-1.11 13.68.23 5.27-4.24 7.96-10.58 10.42-16.69-6.06-14.01-11.75-28.2-17.84-42.19-.92-2.8-4.11-2.82-6.49-3.33.01-.66.03-1.96.03-2.62z"/></svg>