<?xml version="1.0" encoding="utf-8"?>
<!-- Generator: Adobe Illustrator 24.3.0, SVG Export Plug-In . SVG Version: 6.00 Build 0)  -->
<svg version="1.1" id="Layer_1" xmlns="http://www.w3.org/2000/svg" xmlns:xlink="http://www.w3.org/1999/xlink" x="0px" y="0px"
	 viewBox="0 0 765.98 101.18" style="enable-background:new 0 0 765.98 101.18;" xml:space="preserve">
<g>
	<g>
		<path d="M201.35,16.95c1.62-9.47,10.71-16.25,20-16.89c5.03-0.48,9.7,2.28,14.76,1.65c0.44,3.61,0.88,7.21,1.29,10.82
			c-0.72,0.09-2.14,0.28-2.86,0.37c-1.39-2.72-2.82-5.77-5.76-7.12c-5.63-2.55-13.22-1.58-17.19,3.46
			c-4.48,5.56-5.26,14.42-0.58,20.11c4.06,4.7,9.36,8.1,14.1,12.07c-0.11-2.22,0.05-4.49-0.46-6.67c-0.97-0.92-2.13-1.61-3.26-2.3
			c-0.02-0.71-0.08-2.12-0.1-2.82c9.72,0.37,20.21-1.52,29.18,3.26c11.44,6.05,15.82,21.14,11.65,32.98
			c-1.61,4.72-4.88,8.62-8.46,11.99c2.87,2.27,6.39,5.29,10.31,3.58c2.92-1.02,2.19-4.54,2.41-6.93c1.74,0.03,3.42,0.41,3.33,2.54
			c1.07,4.48-2.68,9.17-7.28,9.16c-5.21,0.78-9.74-2.33-13.57-5.43c-12.66,6.51-28.08,7.3-41.35,2.19
			c-6.45-2.61-12.71-6.57-16.44-12.6c-4.95-7.44-4.41-17.82,0.54-25.11c3.69-5.7,10.28-8.78,16.87-9.53
			C203.23,31.12,199.69,24.02,201.35,16.95z M230.99,33.52c-0.84,4.38-0.29,8.89-0.39,13.33c7.53,7.95,13.13,17.43,19.51,26.28
			c3.43-4.36,6.16-9.47,6.46-15.11c0.34-6.58-0.81-13.77-5.29-18.87C246.4,33.45,238.01,32.11,230.99,33.52z M202.54,42.17
			c-6.27,4.66-8.62,13.57-6.5,20.94c2.04,7.16,7.88,12.85,14.69,15.6c10.99,4.66,24.2,4.16,34.66-1.7
			c-8.95-10.13-15.57-22.21-25.45-31.51C215.54,41.12,208.13,38.44,202.54,42.17z"/>
	</g>
	<path d="M14.17,11.75c10.06-8,24.13-9.41,36.2-5.81c3.98,1.36,8.2,0.89,12.23,0.02c0.87,7.01,1.77,14.01,2.61,21.02
		c-1.18,0.22-2.35,0.43-3.53,0.64c-1.83-6-5.06-12.04-10.75-15.16c-7.85-4.75-18.1-5.24-26.38-1.31
		c-5.93,2.75-10.4,8.04-13.05,13.93C6.8,36.34,6.9,49.8,12.6,60.69c5.97,11.12,19.63,16.77,31.84,14.36
		c8.94-1.47,16.47-7.44,21.49-14.77c0.64,0.39,1.93,1.19,2.58,1.59c-3.8,7.66-10.13,14.22-18.23,17.25
		c-16.23,6.8-37.16,0.2-45.51-15.57C-3.83,46.92-0.87,23.76,14.17,11.75z"/>
	<g>
		<path d="M148.6,8.2c4.98-1.16,9.94-2.4,14.91-3.61c0,22.14,0.01,44.28-0.01,66.42c0.16,1.73-0.19,4.14,1.71,5.05
			c2.31,0.81,4.83,0.51,7.23,0.79c-0.27,0.6-0.8,1.8-1.07,2.4c-4.53,1.13-9.27,1.2-13.89,1.9c0-2.75,0.01-5.5,0.03-8.25
			c-4.86,5.24-11.86,8.86-19.15,8.1c-7.59-0.56-14.28-6.03-16.9-13.09c-2.4-6.68-2.55-14.08-0.86-20.94
			c2.12-8.81,9.58-16.46,18.75-17.63c6.43-1.14,12.95,1.27,17.79,5.47c-0.19-6.3,0.08-12.6-0.1-18.89
			c-0.05-1.65-0.39-3.77-2.22-4.34c-2.04-0.57-4.18-0.53-6.27-0.73C148.57,10.19,148.59,8.86,148.6,8.2z M136.95,34.51
			c-5.74,2.6-8.88,8.68-10.07,14.6c-1.31,6.84-0.73,14.37,2.98,20.41c2.93,4.88,8.93,7.52,14.52,6.56
			c5.03-0.59,9.23-3.75,12.71-7.22c-0.04-8.65,0-17.29,0.01-25.94c-0.13-1.24,0.18-2.74-0.77-3.73
			C151.72,33.79,143.51,31.37,136.95,34.51z"/>
	</g>
	<path d="M277.65,24.71c0.77-6.62,1.6-13.23,2.39-19.84c3.09,0.56,6.21,1.06,9.37,1.04c15.66,0.01,31.32-0.03,46.98,0.01
		c3.49,0.05,6.95-0.39,10.37-1.07c0.81,6.64,1.67,13.28,2.39,19.94c-0.89,0.1-2.66,0.31-3.55,0.41c-1.29-4.82-2.83-10.35-7.51-12.97
		c-6.36-3.53-13.94-2.05-20.89-2.35c-0.01,20.05,0.02,40.09-0.02,60.14c0.09,2.08-0.13,5.02,2.25,5.97c2.98,0.97,6.2,0.47,9.28,0.6
		c0,0.83-0.01,2.47-0.02,3.29c-10.17-0.01-20.34-0.01-30.52-0.01c-0.01-0.82-0.04-2.46-0.05-3.28c3.94-0.26,11.5,1.51,11.43-4.61
		c0.22-20.69,0.02-41.4,0.09-62.1c-6.98,0.3-14.61-1.2-20.98,2.39c-4.71,2.58-6.14,8.2-7.45,12.99
		C280.32,25.12,278.54,24.85,277.65,24.71z"/>
	<path d="M352.47,8.22c4.95-1.2,9.88-2.43,14.83-3.61c0.16,11.08,0.13,22.17,0,33.25c6.29-6.15,15.4-10.56,24.3-8.07
		c6.27,1.61,9.96,8.09,10.16,14.25c0.24,9.33-0.07,18.67,0.09,28c0.05,1.57,0.21,3.59,1.89,4.3c2.08,0.63,4.3,0.45,6.46,0.6
		c0.01,0.73,0.02,2.2,0.02,2.94c-7.77-0.01-15.55-0.01-23.33,0c0-0.74,0-2.2,0-2.93c2.67-0.45,7.69,0.89,8.22-2.96
		c0.37-9.35,0.07-18.73,0.14-28.09c0.19-4.57-2.47-9.32-6.97-10.73c-7.25-2.37-15.22,1.16-20.25,6.43
		c-1.31,3.22-0.53,6.97-0.67,10.4c0.41,7.32-0.38,14.66,0.19,21.97c0.48,3.87,5.53,2.54,8.21,2.97c0.01,0.74,0.01,2.2,0.02,2.94
		c-7.78-0.01-15.55,0-23.32-0.01c-0.01-0.73-0.01-2.2-0.01-2.94c2.16-0.15,4.41,0.07,6.51-0.6c2.01-0.92,1.7-3.47,1.82-5.29
		c-0.03-18.02-0.02-36.04,0-54.06c-0.11-1.86,0.07-4.44-1.97-5.33c-2.04-0.68-4.24-0.55-6.34-0.74
		C352.47,10.24,352.47,8.89,352.47,8.22z"/>
	<g>
		<path d="M690.9,8.22c4.97-1.2,9.94-2.43,14.92-3.62c0.01,22.15,0.02,44.29-0.01,66.43c0.23,1.69-0.4,4.2,1.61,5
			c2.14,0.88,4.55,0.52,6.82,0.7c-0.01,0.68-0.05,2.03-0.07,2.71c-4.81,0.54-9.6,1.14-14.41,1.65c0-2.77,0-5.53,0.04-8.29
			c-5.68,6.51-15.07,10.2-23.5,7.3c-7.58-2.26-12.6-9.54-13.99-17.06c-1.83-9.47-0.07-20.2,6.83-27.31
			c7.69-8.37,22.07-8.86,30.2-0.85c-0.22-6.32,0.08-12.64-0.13-18.96c-0.03-1.66-0.42-3.71-2.17-4.38
			c-2.01-0.52-4.11-0.48-6.15-0.67C690.89,10.21,690.9,8.88,690.9,8.22z M670.57,44.13c-2.49,6.44-2.58,13.71-0.81,20.34
			c1.68,6.14,7.08,11.58,13.7,11.76c6.16,0.42,11.75-3.01,15.8-7.38c0.02-9.65-0.03-19.3,0.03-28.96
			c-3.54-3.97-8.49-7.01-13.97-6.76C678.62,33.03,672.9,38.13,670.57,44.13z"/>
	</g>
	<g>
		<path d="M475.66,5.91c11.24,0.03,22.47-0.07,33.7,0.03c10.92,0.11,22.21,4.29,29.22,12.95c9.43,11.47,10.55,28.64,3.32,41.52
			c-6.14,11.93-19.39,18.88-32.54,19.37c-11.25,0.23-22.51,0.04-33.76,0.08c0.03-1.06,0.05-2.13,0.07-3.19
			c2.48-0.22,5.18,0.22,7.52-0.85c2.04-1.15,1.73-3.82,1.85-5.81c-0.14-18.96,0.16-37.94-0.14-56.9c-0.39-4.59-6.05-3.55-9.27-3.76
			C475.63,8.2,475.64,7.06,475.66,5.91z M493.67,10.41c-1.41,0.34-0.68,2.46-1.02,3.52c-0.05,18.7,0.02,37.41-0.03,56.11
			c-0.05,2.14,0.07,5.34,2.79,5.74c4.99,0.58,10.04,0.3,15.05,0.17c7.68-0.32,15.1-3.98,20.1-9.81c10.63-13.2,10.71-33.98-0.4-46.91
			c-5.56-6.53-14.31-9.5-22.72-9.36C502.86,10.02,498.16,9.35,493.67,10.41z"/>
	</g>
	<g>
		<path d="M76.85,32.5c4-2.54,8.93-3.01,13.56-3.35c5.2-0.21,10.97,0.18,15.2,3.57c3.62,2.99,4.84,7.87,4.93,12.38
			c0.13,8.63-0.02,17.27,0.02,25.9c0.04,2.05-0.03,4.6,1.95,5.86c3.18,1.07,5.89-1.95,9.11-1.41c-2.35,3.7-6.63,6.67-11.18,5.37
			c-3.75-0.68-5.74-4.24-6.66-7.61c-3.92,4.38-9.46,7.35-15.35,7.82c-4.55,0.37-9.37-1.2-12.47-4.65
			c-4.69-5.68-3.99-15.37,2.26-19.67c7.52-5.46,16.99-6.92,25.92-8.55c-0.3-4.1-0.21-8.64-2.79-12.09
			c-2.23-2.86-6.03-3.44-9.34-4.19c-3.44,4.4-9.16,8.53-14.97,6.35C74.53,37.3,74.73,33.75,76.85,32.5z M82.53,60.1
			c-4.22,4.12-3.73,12.28,1.86,14.95c6.79,2.91,15.48-0.35,19.28-6.53c0.82-5.68,0.14-11.49,0.32-17.22
			C96.48,52.97,88.22,54.49,82.53,60.1z"/>
	</g>
	<g>
		<path d="M418.86,35.42c5.25-5.31,13.24-7.11,20.46-6.01c3.79,0.7,7.61,2.46,9.86,5.71c3.36,4.62,4.08,10.46,4.52,16
			c-12.14,0.04-24.29-0.06-36.44,0.05c-0.43,6.91,0.47,14.42,5.16,19.86c5.14,6.29,14.94,6.74,21.61,2.73
			c3.7-2.01,6.19-5.52,8.51-8.91c0.41,0.47,1.22,1.43,1.63,1.91c-2.08,5.12-5.94,9.67-11.03,11.98c-9.01,4.49-21.34,2.57-27.49-5.75
			C407.79,61.87,409.1,44.99,418.86,35.42z M428.2,33.89c-5.41,2.47-8.24,8.09-10.16,13.4c7.46-0.13,14.96,0.4,22.4-0.25
			c4.66-0.35,5.54-6.29,3.46-9.64C440.86,32.02,433.33,31.46,428.2,33.89z"/>
	</g>
	<g>
		<path d="M554.01,32.62c3.28-2.27,7.42-2.84,11.3-3.3c5.75-0.5,12.04-0.41,17.01,2.92c3.74,2.63,5.17,7.38,5.34,11.76
			c0.34,9.7-0.11,19.41,0.18,29.11c-0.08,2.02,1.39,4.17,3.6,4.03c2.52-0.44,4.83-1.76,7.45-1.82c-2.19,3.6-6.1,6.56-10.52,5.66
			c-3.99-0.49-6.3-4.17-7.33-7.69c-4.49,4.85-10.96,8.09-17.66,7.77c-5.28-0.27-10.71-3.45-12.44-8.64
			c-1.61-5.18-0.77-11.65,3.82-15.09c7.53-6.02,17.44-7.45,26.65-9.18c-0.24-4.16-0.17-8.79-2.96-12.2
			c-2.19-2.84-5.96-3.36-9.23-4.04c-3.27,4.36-8.73,8.15-14.4,6.53C552.1,37.8,551.7,34.03,554.01,32.62z M564.75,56.47
			c-3.45,1.75-6.71,4.58-7.52,8.53c-1.05,4.21,1.23,9.17,5.49,10.52c6.66,1.98,14.46-1.07,18.19-6.89
			c0.85-5.7,0.14-11.55,0.34-17.32C575.61,52.5,569.86,53.71,564.75,56.47z"/>
	</g>
	<path d="M616.17,38.45c4.61-4.65,10.41-8.48,17.07-9.18c5.78-0.89,12.45,1.18,15.45,6.49c3.36,5.47,2.34,12.1,2.48,18.19
		c0.14,6.7-0.31,13.42,0.2,20.1c0.61,3.8,5.51,2.46,8.21,2.88c0,0.74,0,2.21,0,2.95c-7.78-0.01-15.56-0.01-23.34,0
		c0.01-0.74,0.03-2.21,0.04-2.94c2.71-0.39,7.53,0.82,8.15-2.98c0.5-8.95,0.09-17.95,0.2-26.91c0.24-4.97-2.2-10.62-7.35-12.01
		c-7.63-2.29-15.4,1.79-20.71,7.1c0.03,9.63-0.02,19.26,0,28.89c0.12,1.77-0.14,4.06,1.59,5.17c2.14,0.84,4.53,0.55,6.79,0.76
		c0,0.73,0.01,2.19,0.01,2.92c-7.73,0-15.47-0.02-23.2,0.01c0-0.73,0-2.19,0-2.93c2.69-0.43,7.58,0.81,8.19-3
		c0.48-10.31,0.01-20.66,0.22-30.99c-0.19-2.32,0.45-5.33-1.62-6.99c-2.09-1.05-4.58-0.68-6.83-0.95c0.03-0.69,0.1-2.07,0.14-2.76
		c4.5-1.02,8.99-2.1,13.51-3.03C615.77,32.3,616.05,35.37,616.17,38.45z"/>
	<path d="M713.89,30.09c7.31,0.01,14.62,0,21.93,0c0,0.73,0.01,2.17,0.01,2.9c-2.43,0.25-5.11-0.25-7.28,1.08
		c-0.28,1.7,0.05,3.41,0.67,4.99c4.04,10.33,7.85,20.75,11.99,31.05c3.53-10.44,7.51-20.71,11.11-31.13
		c0.43-1.79,1.87-4.26-0.26-5.49c-2.33-0.53-4.75-0.36-7.11-0.45c0-0.74,0.01-2.21,0.01-2.95c7,0.01,14,0,21,0
		c0,0.66,0.01,1.98,0.02,2.63c-2.41,0.5-5.65,0.44-6.61,3.25c-5.52,12.72-10.15,25.82-15.44,38.64c-3.16,8.4-6.62,17.36-13.86,23.11
		c-3.98,3.1-9.49,4.37-14.33,2.77c-2.33-0.74-3.88-4.06-1.65-5.8c3.85-3.45,9.42-1.11,13.68,0.23c5.27-4.24,7.96-10.58,10.42-16.69
		c-6.06-14.01-11.75-28.2-17.84-42.19c-0.92-2.8-4.11-2.82-6.49-3.33C713.87,32.05,713.89,30.75,713.89,30.09z"/>
</g>
</svg>
