<svg width="16" height="16" fill="none" xmlns="http://www.w3.org/2000/svg"><path fill-rule="evenodd" clip-rule="evenodd" d="M14 0h-3.2a2 2 0 0 0-2 2v3.2a2 2 0 0 0 2 2H14a2 2 0 0 0 2-2V2a2 2 0 0 0-2-2zm-3.6 2c0-.22.18-.4.4-.4H14c.22 0 .4.18.4.4v3.2a.4.4 0 0 1-.4.4h-3.2a.4.4 0 0 1-.4-.4V2zM2.186.751L.75 2.186a2 2 0 0 0 0 2.828L2.186 6.45a2 2 0 0 0 2.828 0L6.45 5.014a2 2 0 0 0 0-2.828L5.014.75a2 2 0 0 0-2.828 0zm-.303 3.132a.4.4 0 0 1 0-.566l1.434-1.434a.4.4 0 0 1 .566 0l1.434 1.434a.4.4 0 0 1 0 .566L3.883 5.317a.4.4 0 0 1-.566 0L1.883 3.883zM5.2 8.8H2a2 2 0 0 0-2 2V14a2 2 0 0 0 2 2h3.2a2 2 0 0 0 2-2v-3.2a2 2 0 0 0-2-2zm-3.6 2c0-.22.18-.4.4-.4h3.2c.22 0 .4.18.4.4V14a.4.4 0 0 1-.4.4H2a.4.4 0 0 1-.4-.4v-3.2zM12.4 16a3.6 3.6 0 1 1 0-7.2 3.6 3.6 0 0 1 0 7.2zm0-5.6a2 2 0 1 0 0 4 2 2 0 0 0 0-4z" fill="#F58020"/></svg>