<svg width="16" height="20" viewBox="0 0 16 20" fill="none" xmlns="http://www.w3.org/2000/svg">
<path fill-rule="evenodd" clip-rule="evenodd" d="M5 2.12601C6.72523 2.57006 8 4.13616 8 6C8 7.86384 6.72523 9.42994 5 9.87398L5 19C5 19.5523 4.55229 20 4 20C3.44772 20 3 19.5523 3 19L3 9.87398C1.27477 9.42994 -5.30489e-07 7.86384 -6.1196e-07 6C-6.93431e-07 4.13616 1.27477 2.57006 3 2.12602L3 0.999998C3 0.447714 3.44772 -2.05805e-06 4 -2.08219e-06C4.55228 -1.98987e-07 5 0.447716 5 1L5 2.12601ZM4 4C2.89543 4 2 4.89543 2 6C2 7.10457 2.89543 8 4 8C5.10457 8 6 7.10457 6 6C6 4.89543 5.10457 4 4 4ZM8 14C8 15.8638 9.27477 17.4299 11 17.874L11 19C11 19.5523 11.4477 20 12 20C12.5523 20 13 19.5523 13 19L13 17.874C14.7252 17.4299 16 15.8638 16 14C16 12.1362 14.7252 10.5701 13 10.126L13 0.999998C13 0.447713 12.5523 -2.45603e-06 12 -2.43189e-06C11.4477 -2.40774e-06 11 0.447713 11 0.999998L11 10.126C9.27477 10.5701 8 12.1362 8 14ZM14 14C14 15.1046 13.1046 16 12 16C10.8954 16 10 15.1046 10 14C10 12.8954 10.8954 12 12 12C13.1046 12 14 12.8954 14 14Z" fill="#F58020"/>
</svg>
