<svg width="20" height="18" fill="none" xmlns="http://www.w3.org/2000/svg"><path fill-rule="evenodd" clip-rule="evenodd" d="M19.6 9.25a1.63 1.63 0 0 0-.31-.95l-1.33-1.87a1.901 1.901 0 0 0-.37-.38h-.06l-1-4.52h1.27a.77.77 0 0 0 .8-.73.781.781 0 0 0-.8-.8h-16A1.75 1.75 0 0 0 0 1.69v12.32a1.7 1.7 0 0 0 1.15 1.58h.07v.08a3.31 3.31 0 0 0 3 1.9 3.33 3.33 0 0 0 3-1.78l.06-.11h3.92l.06.11a3.38 3.38 0 0 0 6 0l.06-.11h.48a1.76 1.76 0 0 0 1.8-1.7V9.25zM4.3 16.11a1.63 1.63 0 1 1 0-3.25 1.631 1.631 0 0 1 .662 3.166 1.63 1.63 0 0 1-.662.085zm5.7-1.9H7.59v-.17a3.27 3.27 0 0 0-3.29-2.67 3.35 3.35 0 0 0-2.36.94l-.34.33v-2.62H10v4.19zm0-5.68H1.6v-7H10v7zm1.6-7H15v.35l.8 3.8h-4.2V1.53zm2.7 14.62a1.63 1.63 0 1 1 1.7-1.63 1.67 1.67 0 0 1-1.7 1.59v.04zm3.7-1.9h-.37l-.06-.17a3.27 3.27 0 0 0-3.27-2.67 3.35 3.35 0 0 0-2.36.94l-.34.33v-5.5h5l1.43 2-.03 5.07z" fill="#F58020"/></svg>