<svg width="20" height="20" fill="none" xmlns="http://www.w3.org/2000/svg"><path fill-rule="evenodd" clip-rule="evenodd" d="M0 10c0 5.523 4.477 10 10 10s10-4.477 10-10S15.523 0 10 0 0 4.477 0 10zm2 0a8 8 0 1 1 16 0 8 8 0 0 1-16 0zm8.548 1.066c-.056.364-.35.686-.756.686H9.68c-.406 0-.7-.308-.756-.686l-.14-.952c-.07-.462.196-.784.644-.84 1.218-.154 1.778-.532 1.778-1.218v-.028c0-.63-.476-.994-1.288-.994-.602 0-1.12.182-1.624.56a1.074 1.074 0 0 1-.63.224.992.992 0 0 1-.98-.98c0-.266.112-.546.364-.756.742-.616 1.68-1.008 2.912-1.008 2.016 0 3.388 1.036 3.388 2.898V8c0 1.778-1.232 2.506-2.758 2.814l-.042.252zm-2.086 2.828v-.028c0-.672.518-1.19 1.218-1.19s1.218.518 1.218 1.19v.028c0 .672-.518 1.19-1.218 1.19s-1.218-.518-1.218-1.19z" fill="#F58020"/></svg>