<svg width="42" height="42" fill="none" xmlns="http://www.w3.org/2000/svg"><path fill-rule="evenodd" clip-rule="evenodd" d="M5.15 7.373v22.022a7.689 7.689 0 0 0 7.64 7.455h15.723a9.358 9.358 0 0 0 9.387-9.298.734.734 0 0 0-.744-.734h-7.991V8.248A4.149 4.149 0 0 0 25.019 4.1H8.469a3.28 3.28 0 0 0-3.32 3.273zM28.513 36.75H12.79a7.585 7.585 0 0 1-7.54-7.358V7.373v22.019a7.589 7.589 0 0 0 7.54 7.358h15.723zm-7.521-8.756l15.842.027-.377 1.49.377-1.49-15.842-.027zm7.521 7.561H17.789l1.432-1.777a8.141 8.141 0 0 0 1.797-4.656l.067-1.028 15.621.027-.345 1.366a8.077 8.077 0 0 1-7.848 6.068zM6.453 7.373a1.97 1.97 0 0 1 1.97-1.97h16.596a2.85 2.85 0 0 1 2.842 2.844v18.57h-7.393a.735.735 0 0 0-.735.735v1.058a6.955 6.955 0 0 1-6.943 6.945 6.335 6.335 0 0 1-6.337-6.338V7.373zM27.097 6.17a2.95 2.95 0 0 1 .864 2.078v18.67-18.67a2.953 2.953 0 0 0-2.942-2.943H8.422 25.02c.78.002 1.527.313 2.078.865zM13.532 35.615a7.05 7.05 0 0 0 1.952-.498zM33.469 5.65a.65.65 0 0 1 .65.65v8.12a.65.65 0 1 1-1.3 0V6.3a.65.65 0 0 1 .65-.65z" fill="#F58020"/><path fill-rule="evenodd" clip-rule="evenodd" d="M32.818 20.25a.65.65 0 0 1 .65-.65h.019a.65.65 0 1 1 0 1.3h-.019a.65.65 0 0 1-.65-.65z" fill="#F58020"/></svg>