<svg width="18" height="20" viewBox="0 0 18 20" fill="none" xmlns="http://www.w3.org/2000/svg">
<path fill-rule="evenodd" clip-rule="evenodd" d="M11.6062 0.0117C11.5632 0.00401204 11.5188 0 11.4735 0C11.4283 0 11.3839 0.00401204 11.3409 0.0117H5.08424C2.59695 0.0117 0.500244 2.02953 0.500244 4.4907V15.2277C0.500244 17.8252 2.50109 19.8647 5.08424 19.8647H13.0722C15.5279 19.8647 17.5522 17.7227 17.5522 15.2277V6.0377C17.5522 5.84406 17.4773 5.65792 17.3432 5.51825L12.2772 0.242246C12.1358 0.094957 11.9404 0.0117 11.7362 0.0117H11.6062ZM10.7235 1.5109L5.08424 1.5117C3.41278 1.5117 2.00024 2.8711 2.00024 4.4907V15.2277C2.00024 17.0032 3.336 18.3647 5.08424 18.3647H13.0722C14.68 18.3647 16.0522 16.9126 16.0522 15.2277L16.052 6.98308L15.1754 6.98607C14.8419 6.98567 14.4626 6.98496 14.041 6.984C12.2706 6.98026 10.8263 5.59347 10.7288 3.84741L10.7235 3.659V1.5109ZM15.231 5.48384L14.0443 5.484C13.0379 5.48188 12.2235 4.66557 12.2235 3.659V2.35185L15.231 5.48384ZM7.89054 9.25579V14.0134L7.89739 14.1152C7.94705 14.4812 8.26085 14.7634 8.64054 14.7634C9.05476 14.7634 9.39054 14.4276 9.39054 14.0134V9.25654L10.9477 10.8202L11.0317 10.893C11.3248 11.1115 11.7415 11.0882 12.0084 10.8224C12.3019 10.5302 12.3029 10.0553 12.0106 9.76179L9.17303 6.91223C9.14682 6.88581 9.11865 6.86133 9.08877 6.83902L9.08736 6.83779C8.79326 6.61881 8.37509 6.64318 8.1086 6.91088L5.2706 9.76188L5.19818 9.84617C4.98099 10.1403 5.00615 10.5569 5.27303 10.8225L5.35731 10.895C5.65142 11.1121 6.06803 11.087 6.33368 10.8201L7.89054 9.25579Z" fill="#363942"/>
</svg>
