<svg width="20" height="21" fill="none" xmlns="http://www.w3.org/2000/svg"><path clip-rule="evenodd" d="M18.528 6.346l-.622-1.08a1.913 1.913 0 0 0-2.609-.705 1.904 1.904 0 0 1-2.609-.678 1.83 1.83 0 0 1-.256-.915A1.914 1.914 0 0 0 10.519 1H9.265A1.904 1.904 0 0 0 7.36 2.913a1.913 1.913 0 0 1-1.913 1.886 1.83 1.83 0 0 1-.915-.257 1.913 1.913 0 0 0-2.609.705l-.668 1.099a1.913 1.913 0 0 0 .695 2.608 1.913 1.913 0 0 1 0 3.314 1.904 1.904 0 0 0-.695 2.6l.631 1.088a1.913 1.913 0 0 0 2.61.742 1.895 1.895 0 0 1 2.599.696c.164.277.253.593.256.915 0 1.056.856 1.913 1.913 1.913h1.254a1.913 1.913 0 0 0 1.913-1.904 1.904 1.904 0 0 1 1.913-1.913c.322.009.636.097.915.256a1.913 1.913 0 0 0 2.61-.695l.658-1.099a1.904 1.904 0 0 0-.696-2.608 1.904 1.904 0 0 1-.695-2.61c.166-.289.406-.529.695-.695a1.913 1.913 0 0 0 .696-2.6v-.008z" stroke="#848DA4" stroke-width="1.5" stroke-linecap="round" stroke-linejoin="round"/><circle cx="9.897" cy="10.611" r="2.636" stroke="#848DA4" stroke-width="1.5" stroke-linecap="round" stroke-linejoin="round"/></svg>