<svg width="16" height="16" fill="none" xmlns="http://www.w3.org/2000/svg"><path fill-rule="evenodd" clip-rule="evenodd" d="M8.667 2.763A2.334 2.334 0 0 1 8.66 7.24c.005.03.007.062.007.094V14a.667.667 0 0 1-1.334 0V7.333a.73.73 0 0 1 .007-.094 2.334 2.334 0 0 1-.007-4.476V2a.667.667 0 1 1 1.334 0v.763zM7 5a1 1 0 1 1 2 0 1 1 0 0 1-2 0zm3 6c0 1.057.703 1.95 1.667 2.237V14A.667.667 0 0 0 13 14v-.763a2.334 2.334 0 0 0-.007-4.476.669.669 0 0 0 .007-.094V2a.667.667 0 1 0-1.333 0v6.667c0 .032.002.064.006.095A2.334 2.334 0 0 0 10 11zm3.334 0a1 1 0 1 1-2 0 1 1 0 0 1 2 0zM3 13.237a2.334 2.334 0 0 1 .007-4.476A.672.672 0 0 1 3 8.667V2a.667.667 0 1 1 1.334 0v6.667a.672.672 0 0 1-.007.094 2.334 2.334 0 0 1 .007 4.476V14A.667.667 0 1 1 3 14v-.763zM3.667 12a1 1 0 1 0 0-2 1 1 0 0 0 0 2z" fill="#363942"/></svg>