<svg width="42" height="42" fill="none" xmlns="http://www.w3.org/2000/svg"><path d="M30.791 19.13a5.079 5.079 0 0 0 5.079-5.076 5.078 5.078 0 0 0-5.079-5.078m2.335 15.672c.837.058 1.67.177 2.49.361 1.139.223 2.509.69 2.996 1.712a2.417 2.417 0 0 1 0 2.073c-.486 1.021-1.857 1.486-2.996 1.72M11.008 19.13a5.079 5.079 0 0 1-5.08-5.076 5.078 5.078 0 0 1 5.08-5.078M8.672 24.648c-.837.058-1.67.177-2.49.361-1.138.223-2.508.69-2.994 1.712a2.406 2.406 0 0 0 0 2.073c.484 1.021 1.856 1.486 2.995 1.72" stroke="#F58020" stroke-width="1.5" stroke-linecap="round" stroke-linejoin="round"/><path clip-rule="evenodd" d="M20.89 25.742c5.683 0 10.537.86 10.537 4.3s-4.822 4.332-10.536 4.332c-5.684 0-10.536-.86-10.536-4.301 0-3.441 4.822-4.331 10.536-4.331zm0-4.908a6.729 6.729 0 0 1-6.751-6.754 6.729 6.729 0 0 1 6.752-6.752 6.729 6.729 0 0 1 6.752 6.752 6.729 6.729 0 0 1-6.752 6.754z" stroke="#F58020" stroke-width="1.5" stroke-linecap="round" stroke-linejoin="round"/></svg>