<svg width="42" height="42" viewBox="0 0 42 42" fill="none" xmlns="http://www.w3.org/2000/svg">
<path d="M30.791 19.1308C33.5951 19.1308 35.8698 16.8577 35.8698 14.0536C35.8698 11.2495 33.5951 8.97644 30.791 8.97644" stroke="#F58020" stroke-width="1.5" stroke-linecap="round" stroke-linejoin="round"/>
<path d="M33.126 24.6483C33.9634 24.7061 34.7959 24.8248 35.6156 25.0093C36.7546 25.2322 38.1246 25.699 38.6122 26.7209C38.9234 27.3754 38.9234 28.1374 38.6122 28.7935C38.1262 29.8153 36.7546 30.2805 35.6156 30.5148" stroke="#F58020" stroke-width="1.5" stroke-linecap="round" stroke-linejoin="round"/>
<path d="M11.0075 19.1308C8.20342 19.1308 5.92871 16.8577 5.92871 14.0536C5.92871 11.2495 8.20342 8.97644 11.0075 8.97644" stroke="#F58020" stroke-width="1.5" stroke-linecap="round" stroke-linejoin="round"/>
<path d="M8.67238 24.6483C7.83501 24.7061 7.00244 24.8248 6.18271 25.0093C5.04376 25.2322 3.6738 25.699 3.18773 26.7209C2.87492 27.3754 2.87492 28.1374 3.18773 28.7935C3.67219 29.8153 5.04376 30.2805 6.18271 30.5148" stroke="#F58020" stroke-width="1.5" stroke-linecap="round" stroke-linejoin="round"/>
<path fill-rule="evenodd" clip-rule="evenodd" d="M20.8907 25.7417C26.5726 25.7417 31.4268 26.6015 31.4268 30.0425C31.4268 33.4818 26.6047 34.3737 20.8907 34.3737C15.2071 34.3737 10.3545 33.5139 10.3545 30.0729C10.3545 26.632 15.1766 25.7417 20.8907 25.7417Z" stroke="#F58020" stroke-width="1.5" stroke-linecap="round" stroke-linejoin="round"/>
<path fill-rule="evenodd" clip-rule="evenodd" d="M20.8906 20.8336C17.1433 20.8336 14.1387 17.829 14.1387 14.0801C14.1387 10.3327 17.1433 7.32812 20.8906 7.32812C24.6379 7.32812 27.6425 10.3327 27.6425 14.0801C27.6425 17.829 24.6379 20.8336 20.8906 20.8336Z" stroke="#F58020" stroke-width="1.5" stroke-linecap="round" stroke-linejoin="round"/>
</svg>
